# xmcd
#
# Track frame offsets: 
#        150
#        26028
#        42378
#        60307
#        75878
#        89049
#        104676
#        122272
#        137946
#        156335
#        180937
#        197791
#        213217
#        227138
#        249474
#        269066
#        284310
#        307833
#
# Disc length: 4354 seconds
#
# Revision: 1
# Processed by: cddbd v1.5.2PL0 Copyright (c) Steve Scherf et al.
# Submitted via: ExactAudioCopy v1.0b6
#
DISCID=f8110012
DTITLE=Erasure - From Moscow To Mars - An Erasure Anthology [CD 6 - Th
DTITLE=e B-Sides 01)
DYEAR=2016
DGENRE=Synthpop
TTITLE0=Supernature
TTITLE1=The Hardest Part
TTITLE2=When I Needed You
TTITLE3=She Won't Be Home
TTITLE4=Knocking On Your Door
TTITLE5=Don't Suppose
TTITLE6=Gimme! Gimme! Gimme!
TTITLE7=Over The Rainbow
TTITLE8=Waiting For Sex
TTITLE9=Tenderest Moments
TTITLE10=March On Down The Line
TTITLE11=Dreamlike State
TTITLE12=The Soldier's Return
TTITLE13=Heart Of Glass (Live In Oxford)
TTITLE14=Let It Flow
TTITLE15=Runaround On The Underground
TTITLE16=Rapture
TTITLE17=Paradise
EXTD=
EXTT0=
EXTT1=
EXTT2=
EXTT3=
EXTT4=
EXTT5=
EXTT6=
EXTT7=
EXTT8=
EXTT9=
EXTT10=
EXTT11=
EXTT12=
EXTT13=
EXTT14=
EXTT15=
EXTT16=
EXTT17=
PLAYORDER=
